<svg width="157" height="37" viewBox="0 0 157 37" fill="none" xmlns="http://www.w3.org/2000/svg">
<path d="M69.516 32.688C69.516 32.016 69.652 31.428 69.924 30.924C70.196 30.412 70.568 30.016 71.04 29.736C71.52 29.456 72.052 29.316 72.636 29.316C73.212 29.316 73.712 29.44 74.136 29.688C74.56 29.936 74.876 30.248 75.084 30.624V29.424H76.188V36H75.084V34.776C74.868 35.16 74.544 35.48 74.112 35.736C73.688 35.984 73.192 36.108 72.624 36.108C72.04 36.108 71.512 35.964 71.04 35.676C70.568 35.388 70.196 34.984 69.924 34.464C69.652 33.944 69.516 33.352 69.516 32.688ZM75.084 32.7C75.084 32.204 74.984 31.772 74.784 31.404C74.584 31.036 74.312 30.756 73.968 30.564C73.632 30.364 73.26 30.264 72.852 30.264C72.444 30.264 72.072 30.36 71.736 30.552C71.4 30.744 71.132 31.024 70.932 31.392C70.732 31.76 70.632 32.192 70.632 32.688C70.632 33.192 70.732 33.632 70.932 34.008C71.132 34.376 71.4 34.66 71.736 34.86C72.072 35.052 72.444 35.148 72.852 35.148C73.26 35.148 73.632 35.052 73.968 34.86C74.312 34.66 74.584 34.376 74.784 34.008C74.984 33.632 75.084 33.196 75.084 32.7ZM80.3614 36.108C79.8574 36.108 79.4054 36.024 79.0054 35.856C78.6054 35.68 78.2894 35.44 78.0574 35.136C77.8254 34.824 77.6974 34.468 77.6734 34.068H78.8014C78.8334 34.396 78.9854 34.664 79.2574 34.872C79.5374 35.08 79.9014 35.184 80.3494 35.184C80.7654 35.184 81.0934 35.092 81.3334 34.908C81.5734 34.724 81.6934 34.492 81.6934 34.212C81.6934 33.924 81.5654 33.712 81.3094 33.576C81.0534 33.432 80.6574 33.292 80.1214 33.156C79.6334 33.028 79.2334 32.9 78.9214 32.772C78.6174 32.636 78.3534 32.44 78.1294 32.184C77.9134 31.92 77.8054 31.576 77.8054 31.152C77.8054 30.816 77.9054 30.508 78.1054 30.228C78.3054 29.948 78.5894 29.728 78.9574 29.568C79.3254 29.4 79.7454 29.316 80.2174 29.316C80.9454 29.316 81.5334 29.5 81.9814 29.868C82.4294 30.236 82.6694 30.74 82.7014 31.38H81.6094C81.5854 31.036 81.4454 30.76 81.1894 30.552C80.9414 30.344 80.6054 30.24 80.1814 30.24C79.7894 30.24 79.4774 30.324 79.2454 30.492C79.0134 30.66 78.8974 30.88 78.8974 31.152C78.8974 31.368 78.9654 31.548 79.1014 31.692C79.2454 31.828 79.4214 31.94 79.6294 32.028C79.8454 32.108 80.1414 32.2 80.5174 32.304C80.9894 32.432 81.3734 32.56 81.6694 32.688C81.9654 32.808 82.2174 32.992 82.4254 33.24C82.6414 33.488 82.7534 33.812 82.7614 34.212C82.7614 34.572 82.6614 34.896 82.4614 35.184C82.2614 35.472 81.9774 35.7 81.6094 35.868C81.2494 36.028 80.8334 36.108 80.3614 36.108ZM92.4461 34.14H88.7981L88.1261 36H86.9741L89.9981 27.684H91.2581L94.2701 36H93.1181L92.4461 34.14ZM92.1341 33.252L90.6221 29.028L89.1101 33.252H92.1341ZM95.1801 32.7C95.1801 32.02 95.3161 31.428 95.5881 30.924C95.8601 30.412 96.2361 30.016 96.7161 29.736C97.2041 29.456 97.7601 29.316 98.3841 29.316C99.1921 29.316 99.8561 29.512 100.376 29.904C100.904 30.296 101.252 30.84 101.42 31.536H100.244C100.132 31.136 99.9121 30.82 99.5841 30.588C99.2641 30.356 98.8641 30.24 98.3841 30.24C97.7601 30.24 97.2561 30.456 96.8721 30.888C96.4881 31.312 96.2961 31.916 96.2961 32.7C96.2961 33.492 96.4881 34.104 96.8721 34.536C97.2561 34.968 97.7601 35.184 98.3841 35.184C98.8641 35.184 99.2641 35.072 99.5841 34.848C99.9041 34.624 100.124 34.304 100.244 33.888H101.42C101.244 34.56 100.892 35.1 100.364 35.508C99.8361 35.908 99.1761 36.108 98.3841 36.108C97.7601 36.108 97.2041 35.968 96.7161 35.688C96.2361 35.408 95.8601 35.012 95.5881 34.5C95.3161 33.988 95.1801 33.388 95.1801 32.7ZM102.469 32.7C102.469 32.02 102.605 31.428 102.877 30.924C103.149 30.412 103.525 30.016 104.005 29.736C104.493 29.456 105.049 29.316 105.673 29.316C106.481 29.316 107.145 29.512 107.665 29.904C108.193 30.296 108.541 30.84 108.709 31.536H107.533C107.421 31.136 107.201 30.82 106.873 30.588C106.553 30.356 106.153 30.24 105.673 30.24C105.049 30.24 104.545 30.456 104.161 30.888C103.777 31.312 103.585 31.916 103.585 32.7C103.585 33.492 103.777 34.104 104.161 34.536C104.545 34.968 105.049 35.184 105.673 35.184C106.153 35.184 106.553 35.072 106.873 34.848C107.193 34.624 107.413 34.304 107.533 33.888H108.709C108.533 34.56 108.181 35.1 107.653 35.508C107.125 35.908 106.465 36.108 105.673 36.108C105.049 36.108 104.493 35.968 104.005 35.688C103.525 35.408 103.149 35.012 102.877 34.5C102.605 33.988 102.469 33.388 102.469 32.7ZM113.034 36.108C112.418 36.108 111.858 35.968 111.354 35.688C110.858 35.408 110.466 35.012 110.178 34.5C109.898 33.98 109.758 33.38 109.758 32.7C109.758 32.028 109.902 31.436 110.19 30.924C110.486 30.404 110.886 30.008 111.39 29.736C111.894 29.456 112.458 29.316 113.082 29.316C113.706 29.316 114.27 29.456 114.774 29.736C115.278 30.008 115.674 30.4 115.962 30.912C116.258 31.424 116.406 32.02 116.406 32.7C116.406 33.38 116.254 33.98 115.95 34.5C115.654 35.012 115.25 35.408 114.738 35.688C114.226 35.968 113.658 36.108 113.034 36.108ZM113.034 35.148C113.426 35.148 113.794 35.056 114.138 34.872C114.482 34.688 114.758 34.412 114.966 34.044C115.182 33.676 115.29 33.228 115.29 32.7C115.29 32.172 115.186 31.724 114.978 31.356C114.77 30.988 114.498 30.716 114.162 30.54C113.826 30.356 113.462 30.264 113.07 30.264C112.67 30.264 112.302 30.356 111.966 30.54C111.638 30.716 111.374 30.988 111.174 31.356C110.974 31.724 110.874 32.172 110.874 32.7C110.874 33.236 110.97 33.688 111.162 34.056C111.362 34.424 111.626 34.7 111.954 34.884C112.282 35.06 112.642 35.148 113.034 35.148ZM123.674 29.424V36H122.582V35.028C122.374 35.364 122.082 35.628 121.706 35.82C121.338 36.004 120.93 36.096 120.482 36.096C119.97 36.096 119.51 35.992 119.102 35.784C118.694 35.568 118.37 35.248 118.13 34.824C117.898 34.4 117.782 33.884 117.782 33.276V29.424H118.862V33.132C118.862 33.78 119.026 34.28 119.354 34.632C119.682 34.976 120.13 35.148 120.698 35.148C121.282 35.148 121.742 34.968 122.078 34.608C122.414 34.248 122.582 33.724 122.582 33.036V29.424H123.674ZM128.722 29.304C129.522 29.304 130.17 29.548 130.666 30.036C131.162 30.516 131.41 31.212 131.41 32.124V36H130.33V32.28C130.33 31.624 130.166 31.124 129.838 30.78C129.51 30.428 129.062 30.252 128.494 30.252C127.918 30.252 127.458 30.432 127.114 30.792C126.778 31.152 126.61 31.676 126.61 32.364V36H125.518V29.424H126.61V30.36C126.826 30.024 127.118 29.764 127.486 29.58C127.862 29.396 128.274 29.304 128.722 29.304ZM134.526 30.324V34.2C134.526 34.52 134.594 34.748 134.73 34.884C134.866 35.012 135.102 35.076 135.438 35.076H136.242V36H135.258C134.65 36 134.194 35.86 133.89 35.58C133.586 35.3 133.434 34.84 133.434 34.2V30.324H132.582V29.424H133.434V27.768H134.526V29.424H136.242V30.324H134.526ZM137.157 32.688C137.157 32.016 137.293 31.428 137.565 30.924C137.837 30.412 138.209 30.016 138.681 29.736C139.161 29.456 139.693 29.316 140.277 29.316C140.853 29.316 141.353 29.44 141.777 29.688C142.201 29.936 142.517 30.248 142.725 30.624V29.424H143.829V36H142.725V34.776C142.509 35.16 142.185 35.48 141.753 35.736C141.329 35.984 140.833 36.108 140.265 36.108C139.681 36.108 139.153 35.964 138.681 35.676C138.209 35.388 137.837 34.984 137.565 34.464C137.293 33.944 137.157 33.352 137.157 32.688ZM142.725 32.7C142.725 32.204 142.625 31.772 142.425 31.404C142.225 31.036 141.953 30.756 141.609 30.564C141.273 30.364 140.901 30.264 140.493 30.264C140.085 30.264 139.713 30.36 139.377 30.552C139.041 30.744 138.773 31.024 138.573 31.392C138.373 31.76 138.273 32.192 138.273 32.688C138.273 33.192 138.373 33.632 138.573 34.008C138.773 34.376 139.041 34.66 139.377 34.86C139.713 35.052 140.085 35.148 140.493 35.148C140.901 35.148 141.273 35.052 141.609 34.86C141.953 34.66 142.225 34.376 142.425 34.008C142.625 33.632 142.725 33.196 142.725 32.7ZM148.878 29.304C149.678 29.304 150.326 29.548 150.822 30.036C151.318 30.516 151.566 31.212 151.566 32.124V36H150.486V32.28C150.486 31.624 150.322 31.124 149.994 30.78C149.666 30.428 149.218 30.252 148.65 30.252C148.074 30.252 147.614 30.432 147.27 30.792C146.934 31.152 146.766 31.676 146.766 32.364V36H145.674V29.424H146.766V30.36C146.982 30.024 147.274 29.764 147.642 29.58C148.018 29.396 148.43 29.304 148.878 29.304ZM154.682 30.324V34.2C154.682 34.52 154.75 34.748 154.886 34.884C155.022 35.012 155.258 35.076 155.594 35.076H156.398V36H155.414C154.806 36 154.35 35.86 154.046 35.58C153.742 35.3 153.59 34.84 153.59 34.2V30.324H152.738V29.424H153.59V27.768H154.682V29.424H156.398V30.324H154.682Z" fill="black" fill-opacity="0.6"/>
<path d="M4.852 18.892H11.292V22H0.932V2.456H4.852V18.892ZM20.6716 22.252C19.1782 22.252 17.8342 21.9253 16.6396 21.272C15.4449 20.6 14.5022 19.6573 13.8116 18.444C13.1396 17.2307 12.8036 15.8307 12.8036 14.244C12.8036 12.6573 13.1489 11.2573 13.8396 10.044C14.5489 8.83067 15.5102 7.89733 16.7236 7.244C17.9369 6.572 19.2902 6.236 20.7836 6.236C22.2769 6.236 23.6302 6.572 24.8436 7.244C26.0569 7.89733 27.0089 8.83067 27.6996 10.044C28.4089 11.2573 28.7636 12.6573 28.7636 14.244C28.7636 15.8307 28.3996 17.2307 27.6716 18.444C26.9622 19.6573 25.9916 20.6 24.7596 21.272C23.5462 21.9253 22.1836 22.252 20.6716 22.252ZM20.6716 18.836C21.3809 18.836 22.0436 18.668 22.6596 18.332C23.2942 17.9773 23.7982 17.4547 24.1716 16.764C24.5449 16.0733 24.7316 15.2333 24.7316 14.244C24.7316 12.7693 24.3396 11.64 23.5556 10.856C22.7902 10.0533 21.8476 9.652 20.7276 9.652C19.6076 9.652 18.6649 10.0533 17.8996 10.856C17.1529 11.64 16.7796 12.7693 16.7796 14.244C16.7796 15.7187 17.1436 16.8573 17.8716 17.66C18.6182 18.444 19.5516 18.836 20.6716 18.836ZM37.715 6.236C38.8724 6.236 39.8897 6.46933 40.767 6.936C41.6444 7.384 42.335 7.972 42.839 8.7V6.488H46.787V22.112C46.787 23.5493 46.4977 24.828 45.919 25.948C45.3404 27.0867 44.4724 27.9827 43.315 28.636C42.1577 29.308 40.7577 29.644 39.115 29.644C36.9124 29.644 35.1017 29.1307 33.683 28.104C32.283 27.0773 31.4897 25.6773 31.303 23.904H35.195C35.4004 24.6133 35.839 25.1733 36.511 25.584C37.2017 26.0133 38.0324 26.228 39.003 26.228C40.1417 26.228 41.0657 25.8827 41.775 25.192C42.4844 24.52 42.839 23.4933 42.839 22.112V19.704C42.335 20.432 41.635 21.0387 40.739 21.524C39.8617 22.0093 38.8537 22.252 37.715 22.252C36.4084 22.252 35.2137 21.916 34.131 21.244C33.0484 20.572 32.1897 19.6293 31.555 18.416C30.939 17.184 30.631 15.7747 30.631 14.188C30.631 12.62 30.939 11.2293 31.555 10.016C32.1897 8.80267 33.039 7.86933 34.103 7.216C35.1857 6.56267 36.3897 6.236 37.715 6.236ZM42.839 14.244C42.839 13.292 42.6524 12.48 42.279 11.808C41.9057 11.1173 41.4017 10.5947 40.767 10.24C40.1324 9.86667 39.451 9.68 38.723 9.68C37.995 9.68 37.323 9.85733 36.707 10.212C36.091 10.5667 35.587 11.0893 35.195 11.78C34.8217 12.452 34.635 13.2547 34.635 14.188C34.635 15.1213 34.8217 15.9427 35.195 16.652C35.587 17.3427 36.091 17.8747 36.707 18.248C37.3417 18.6213 38.0137 18.808 38.723 18.808C39.451 18.808 40.1324 18.6307 40.767 18.276C41.4017 17.9027 41.9057 17.38 42.279 16.708C42.6524 16.0173 42.839 15.196 42.839 14.244ZM52.6036 4.64C51.9129 4.64 51.3343 4.42533 50.8676 3.996C50.4196 3.548 50.1956 2.99733 50.1956 2.344C50.1956 1.69067 50.4196 1.14933 50.8676 0.719999C51.3343 0.271999 51.9129 0.0479989 52.6036 0.0479989C53.2943 0.0479989 53.8636 0.271999 54.3116 0.719999C54.7783 1.14933 55.0116 1.69067 55.0116 2.344C55.0116 2.99733 54.7783 3.548 54.3116 3.996C53.8636 4.42533 53.2943 4.64 52.6036 4.64ZM54.5356 6.488V22H50.6156V6.488H54.5356ZM67.0046 6.264C68.8526 6.264 70.3459 6.852 71.4846 8.028C72.6232 9.18533 73.1926 10.8093 73.1926 12.9V22H69.2726V13.432C69.2726 12.2 68.9646 11.2573 68.3486 10.604C67.7326 9.932 66.8926 9.596 65.8286 9.596C64.7459 9.596 63.8872 9.932 63.2526 10.604C62.6366 11.2573 62.3286 12.2 62.3286 13.432V22H58.4086V6.488H62.3286V8.42C62.8512 7.748 63.5139 7.22533 64.3166 6.852C65.1379 6.46 66.0339 6.264 67.0046 6.264Z" fill="#215D4F"/>
</svg>
