<svg width="169" height="39" viewBox="0 0 169 39" fill="none" xmlns="http://www.w3.org/2000/svg">
<path d="M7.68 22.196C6.31733 22.196 5.08533 21.9627 3.984 21.496C2.90133 21.0293 2.04267 20.3573 1.408 19.48C0.773333 18.6027 0.446667 17.5667 0.428 16.372H4.628C4.684 17.1747 4.964 17.8093 5.468 18.276C5.99067 18.7427 6.7 18.976 7.596 18.976C8.51067 18.976 9.22933 18.7613 9.752 18.332C10.2747 17.884 10.536 17.3053 10.536 16.596C10.536 16.0173 10.3587 15.5413 10.004 15.168C9.64933 14.7947 9.20133 14.5053 8.66 14.3C8.13733 14.076 7.40933 13.8333 6.476 13.572C5.20667 13.1987 4.17067 12.8347 3.368 12.48C2.584 12.1067 1.90267 11.556 1.324 10.828C0.764 10.0813 0.484 9.092 0.484 7.86C0.484 6.70267 0.773333 5.69467 1.352 4.836C1.93067 3.97733 2.74267 3.324 3.788 2.876C4.83333 2.40933 6.028 2.176 7.372 2.176C9.388 2.176 11.0213 2.67067 12.272 3.66C13.5413 4.63067 14.2413 5.99333 14.372 7.748H10.06C10.0227 7.076 9.73333 6.52533 9.192 6.096C8.66933 5.648 7.96933 5.424 7.092 5.424C6.32667 5.424 5.71067 5.62 5.244 6.012C4.796 6.404 4.572 6.97333 4.572 7.72C4.572 8.24267 4.74 8.68133 5.076 9.036C5.43067 9.372 5.86 9.652 6.364 9.876C6.88667 10.0813 7.61467 10.324 8.548 10.604C9.81733 10.9773 10.8533 11.3507 11.656 11.724C12.4587 12.0973 13.1493 12.6573 13.728 13.404C14.3067 14.1507 14.596 15.1307 14.596 16.344C14.596 17.3893 14.3253 18.36 13.784 19.256C13.2427 20.152 12.4493 20.8707 11.404 21.412C10.3587 21.9347 9.11733 22.196 7.68 22.196ZM19.9825 4.64C19.2918 4.64 18.7132 4.42533 18.2465 3.996C17.7985 3.548 17.5745 2.99733 17.5745 2.344C17.5745 1.69067 17.7985 1.14933 18.2465 0.719999C18.7132 0.271999 19.2918 0.0479989 19.9825 0.0479989C20.6732 0.0479989 21.2425 0.271999 21.6905 0.719999C22.1572 1.14933 22.3905 1.69067 22.3905 2.344C22.3905 2.99733 22.1572 3.548 21.6905 3.996C21.2425 4.42533 20.6732 4.64 19.9825 4.64ZM21.9145 6.488V22H17.9945V6.488H21.9145ZM31.8635 6.236C33.0208 6.236 34.0381 6.46933 34.9155 6.936C35.7928 7.384 36.4835 7.972 36.9875 8.7V6.488H40.9355V22.112C40.9355 23.5493 40.6461 24.828 40.0675 25.948C39.4888 27.0867 38.6208 27.9827 37.4635 28.636C36.3061 29.308 34.9061 29.644 33.2635 29.644C31.0608 29.644 29.2501 29.1307 27.8315 28.104C26.4315 27.0773 25.6381 25.6773 25.4515 23.904H29.3435C29.5488 24.6133 29.9875 25.1733 30.6595 25.584C31.3501 26.0133 32.1808 26.228 33.1515 26.228C34.2901 26.228 35.2141 25.8827 35.9235 25.192C36.6328 24.52 36.9875 23.4933 36.9875 22.112V19.704C36.4835 20.432 35.7835 21.0387 34.8875 21.524C34.0101 22.0093 33.0021 22.252 31.8635 22.252C30.5568 22.252 29.3621 21.916 28.2795 21.244C27.1968 20.572 26.3381 19.6293 25.7035 18.416C25.0875 17.184 24.7795 15.7747 24.7795 14.188C24.7795 12.62 25.0875 11.2293 25.7035 10.016C26.3381 8.80267 27.1875 7.86933 28.2515 7.216C29.3341 6.56267 30.5381 6.236 31.8635 6.236ZM36.9875 14.244C36.9875 13.292 36.8008 12.48 36.4275 11.808C36.0541 11.1173 35.5501 10.5947 34.9155 10.24C34.2808 9.86667 33.5995 9.68 32.8715 9.68C32.1435 9.68 31.4715 9.85733 30.8555 10.212C30.2395 10.5667 29.7355 11.0893 29.3435 11.78C28.9701 12.452 28.7835 13.2547 28.7835 14.188C28.7835 15.1213 28.9701 15.9427 29.3435 16.652C29.7355 17.3427 30.2395 17.8747 30.8555 18.248C31.4901 18.6213 32.1621 18.808 32.8715 18.808C33.5995 18.808 34.2808 18.6307 34.9155 18.276C35.5501 17.9027 36.0541 17.38 36.4275 16.708C36.8008 16.0173 36.9875 15.196 36.9875 14.244ZM53.36 6.264C55.208 6.264 56.7014 6.852 57.84 8.028C58.9787 9.18533 59.548 10.8093 59.548 12.9V22H55.628V13.432C55.628 12.2 55.32 11.2573 54.704 10.604C54.088 9.932 53.248 9.596 52.184 9.596C51.1014 9.596 50.2427 9.932 49.608 10.604C48.992 11.2573 48.684 12.2 48.684 13.432V22H44.764V6.488H48.684V8.42C49.2067 7.748 49.8694 7.22533 50.672 6.852C51.4934 6.46 52.3894 6.264 53.36 6.264ZM77.9198 6.488V22H73.9718V20.04C73.4678 20.712 72.8051 21.244 71.9838 21.636C71.1811 22.0093 70.3038 22.196 69.3518 22.196C68.1384 22.196 67.0651 21.944 66.1318 21.44C65.1984 20.9173 64.4611 20.1613 63.9198 19.172C63.3971 18.164 63.1358 16.9693 63.1358 15.588V6.488H67.0558V15.028C67.0558 16.26 67.3638 17.212 67.9798 17.884C68.5958 18.5373 69.4358 18.864 70.4998 18.864C71.5824 18.864 72.4318 18.5373 73.0478 17.884C73.6638 17.212 73.9718 16.26 73.9718 15.028V6.488H77.9198ZM85.7075 8.728C86.2115 8.01867 86.9021 7.43067 87.7795 6.964C88.6755 6.47867 89.6928 6.236 90.8315 6.236C92.1568 6.236 93.3515 6.56267 94.4155 7.216C95.4981 7.86933 96.3475 8.80267 96.9635 10.016C97.5981 11.2107 97.9155 12.6013 97.9155 14.188C97.9155 15.7747 97.5981 17.184 96.9635 18.416C96.3475 19.6293 95.4981 20.572 94.4155 21.244C93.3515 21.916 92.1568 22.252 90.8315 22.252C89.6928 22.252 88.6848 22.0187 87.8075 21.552C86.9488 21.0853 86.2488 20.4973 85.7075 19.788V29.392H81.7875V6.488H85.7075V8.728ZM93.9115 14.188C93.9115 13.2547 93.7155 12.452 93.3235 11.78C92.9501 11.0893 92.4461 10.5667 91.8115 10.212C91.1955 9.85733 90.5235 9.68 89.7955 9.68C89.0861 9.68 88.4141 9.86667 87.7795 10.24C87.1635 10.5947 86.6595 11.1173 86.2675 11.808C85.8941 12.4987 85.7075 13.3107 85.7075 14.244C85.7075 15.1773 85.8941 15.9893 86.2675 16.68C86.6595 17.3707 87.1635 17.9027 87.7795 18.276C88.4141 18.6307 89.0861 18.808 89.7955 18.808C90.5235 18.808 91.1955 18.6213 91.8115 18.248C92.4461 17.8747 92.9501 17.3427 93.3235 16.652C93.7155 15.9613 93.9115 15.14 93.9115 14.188Z" fill="#215D4F"/>
<path d="M81.516 34.688C81.516 34.016 81.652 33.428 81.924 32.924C82.196 32.412 82.568 32.016 83.04 31.736C83.52 31.456 84.052 31.316 84.636 31.316C85.212 31.316 85.712 31.44 86.136 31.688C86.56 31.936 86.876 32.248 87.084 32.624V31.424H88.188V38H87.084V36.776C86.868 37.16 86.544 37.48 86.112 37.736C85.688 37.984 85.192 38.108 84.624 38.108C84.04 38.108 83.512 37.964 83.04 37.676C82.568 37.388 82.196 36.984 81.924 36.464C81.652 35.944 81.516 35.352 81.516 34.688ZM87.084 34.7C87.084 34.204 86.984 33.772 86.784 33.404C86.584 33.036 86.312 32.756 85.968 32.564C85.632 32.364 85.26 32.264 84.852 32.264C84.444 32.264 84.072 32.36 83.736 32.552C83.4 32.744 83.132 33.024 82.932 33.392C82.732 33.76 82.632 34.192 82.632 34.688C82.632 35.192 82.732 35.632 82.932 36.008C83.132 36.376 83.4 36.66 83.736 36.86C84.072 37.052 84.444 37.148 84.852 37.148C85.26 37.148 85.632 37.052 85.968 36.86C86.312 36.66 86.584 36.376 86.784 36.008C86.984 35.632 87.084 35.196 87.084 34.7ZM92.3614 38.108C91.8574 38.108 91.4054 38.024 91.0054 37.856C90.6054 37.68 90.2894 37.44 90.0574 37.136C89.8254 36.824 89.6974 36.468 89.6734 36.068H90.8014C90.8334 36.396 90.9854 36.664 91.2574 36.872C91.5374 37.08 91.9014 37.184 92.3494 37.184C92.7654 37.184 93.0934 37.092 93.3334 36.908C93.5734 36.724 93.6934 36.492 93.6934 36.212C93.6934 35.924 93.5654 35.712 93.3094 35.576C93.0534 35.432 92.6574 35.292 92.1214 35.156C91.6334 35.028 91.2334 34.9 90.9214 34.772C90.6174 34.636 90.3534 34.44 90.1294 34.184C89.9134 33.92 89.8054 33.576 89.8054 33.152C89.8054 32.816 89.9054 32.508 90.1054 32.228C90.3054 31.948 90.5894 31.728 90.9574 31.568C91.3254 31.4 91.7454 31.316 92.2174 31.316C92.9454 31.316 93.5334 31.5 93.9814 31.868C94.4294 32.236 94.6694 32.74 94.7014 33.38H93.6094C93.5854 33.036 93.4454 32.76 93.1894 32.552C92.9414 32.344 92.6054 32.24 92.1814 32.24C91.7894 32.24 91.4774 32.324 91.2454 32.492C91.0134 32.66 90.8974 32.88 90.8974 33.152C90.8974 33.368 90.9654 33.548 91.1014 33.692C91.2454 33.828 91.4214 33.94 91.6294 34.028C91.8454 34.108 92.1414 34.2 92.5174 34.304C92.9894 34.432 93.3734 34.56 93.6694 34.688C93.9654 34.808 94.2174 34.992 94.4254 35.24C94.6414 35.488 94.7534 35.812 94.7614 36.212C94.7614 36.572 94.6614 36.896 94.4614 37.184C94.2614 37.472 93.9774 37.7 93.6094 37.868C93.2494 38.028 92.8334 38.108 92.3614 38.108ZM104.446 36.14H100.798L100.126 38H98.9741L101.998 29.684H103.258L106.27 38H105.118L104.446 36.14ZM104.134 35.252L102.622 31.028L101.11 35.252H104.134ZM107.18 34.7C107.18 34.02 107.316 33.428 107.588 32.924C107.86 32.412 108.236 32.016 108.716 31.736C109.204 31.456 109.76 31.316 110.384 31.316C111.192 31.316 111.856 31.512 112.376 31.904C112.904 32.296 113.252 32.84 113.42 33.536H112.244C112.132 33.136 111.912 32.82 111.584 32.588C111.264 32.356 110.864 32.24 110.384 32.24C109.76 32.24 109.256 32.456 108.872 32.888C108.488 33.312 108.296 33.916 108.296 34.7C108.296 35.492 108.488 36.104 108.872 36.536C109.256 36.968 109.76 37.184 110.384 37.184C110.864 37.184 111.264 37.072 111.584 36.848C111.904 36.624 112.124 36.304 112.244 35.888H113.42C113.244 36.56 112.892 37.1 112.364 37.508C111.836 37.908 111.176 38.108 110.384 38.108C109.76 38.108 109.204 37.968 108.716 37.688C108.236 37.408 107.86 37.012 107.588 36.5C107.316 35.988 107.18 35.388 107.18 34.7ZM114.469 34.7C114.469 34.02 114.605 33.428 114.877 32.924C115.149 32.412 115.525 32.016 116.005 31.736C116.493 31.456 117.049 31.316 117.673 31.316C118.481 31.316 119.145 31.512 119.665 31.904C120.193 32.296 120.541 32.84 120.709 33.536H119.533C119.421 33.136 119.201 32.82 118.873 32.588C118.553 32.356 118.153 32.24 117.673 32.24C117.049 32.24 116.545 32.456 116.161 32.888C115.777 33.312 115.585 33.916 115.585 34.7C115.585 35.492 115.777 36.104 116.161 36.536C116.545 36.968 117.049 37.184 117.673 37.184C118.153 37.184 118.553 37.072 118.873 36.848C119.193 36.624 119.413 36.304 119.533 35.888H120.709C120.533 36.56 120.181 37.1 119.653 37.508C119.125 37.908 118.465 38.108 117.673 38.108C117.049 38.108 116.493 37.968 116.005 37.688C115.525 37.408 115.149 37.012 114.877 36.5C114.605 35.988 114.469 35.388 114.469 34.7ZM125.034 38.108C124.418 38.108 123.858 37.968 123.354 37.688C122.858 37.408 122.466 37.012 122.178 36.5C121.898 35.98 121.758 35.38 121.758 34.7C121.758 34.028 121.902 33.436 122.19 32.924C122.486 32.404 122.886 32.008 123.39 31.736C123.894 31.456 124.458 31.316 125.082 31.316C125.706 31.316 126.27 31.456 126.774 31.736C127.278 32.008 127.674 32.4 127.962 32.912C128.258 33.424 128.406 34.02 128.406 34.7C128.406 35.38 128.254 35.98 127.95 36.5C127.654 37.012 127.25 37.408 126.738 37.688C126.226 37.968 125.658 38.108 125.034 38.108ZM125.034 37.148C125.426 37.148 125.794 37.056 126.138 36.872C126.482 36.688 126.758 36.412 126.966 36.044C127.182 35.676 127.29 35.228 127.29 34.7C127.29 34.172 127.186 33.724 126.978 33.356C126.77 32.988 126.498 32.716 126.162 32.54C125.826 32.356 125.462 32.264 125.07 32.264C124.67 32.264 124.302 32.356 123.966 32.54C123.638 32.716 123.374 32.988 123.174 33.356C122.974 33.724 122.874 34.172 122.874 34.7C122.874 35.236 122.97 35.688 123.162 36.056C123.362 36.424 123.626 36.7 123.954 36.884C124.282 37.06 124.642 37.148 125.034 37.148ZM135.674 31.424V38H134.582V37.028C134.374 37.364 134.082 37.628 133.706 37.82C133.338 38.004 132.93 38.096 132.482 38.096C131.97 38.096 131.51 37.992 131.102 37.784C130.694 37.568 130.37 37.248 130.13 36.824C129.898 36.4 129.782 35.884 129.782 35.276V31.424H130.862V35.132C130.862 35.78 131.026 36.28 131.354 36.632C131.682 36.976 132.13 37.148 132.698 37.148C133.282 37.148 133.742 36.968 134.078 36.608C134.414 36.248 134.582 35.724 134.582 35.036V31.424H135.674ZM140.722 31.304C141.522 31.304 142.17 31.548 142.666 32.036C143.162 32.516 143.41 33.212 143.41 34.124V38H142.33V34.28C142.33 33.624 142.166 33.124 141.838 32.78C141.51 32.428 141.062 32.252 140.494 32.252C139.918 32.252 139.458 32.432 139.114 32.792C138.778 33.152 138.61 33.676 138.61 34.364V38H137.518V31.424H138.61V32.36C138.826 32.024 139.118 31.764 139.486 31.58C139.862 31.396 140.274 31.304 140.722 31.304ZM146.526 32.324V36.2C146.526 36.52 146.594 36.748 146.73 36.884C146.866 37.012 147.102 37.076 147.438 37.076H148.242V38H147.258C146.65 38 146.194 37.86 145.89 37.58C145.586 37.3 145.434 36.84 145.434 36.2V32.324H144.582V31.424H145.434V29.768H146.526V31.424H148.242V32.324H146.526ZM149.157 34.688C149.157 34.016 149.293 33.428 149.565 32.924C149.837 32.412 150.209 32.016 150.681 31.736C151.161 31.456 151.693 31.316 152.277 31.316C152.853 31.316 153.353 31.44 153.777 31.688C154.201 31.936 154.517 32.248 154.725 32.624V31.424H155.829V38H154.725V36.776C154.509 37.16 154.185 37.48 153.753 37.736C153.329 37.984 152.833 38.108 152.265 38.108C151.681 38.108 151.153 37.964 150.681 37.676C150.209 37.388 149.837 36.984 149.565 36.464C149.293 35.944 149.157 35.352 149.157 34.688ZM154.725 34.7C154.725 34.204 154.625 33.772 154.425 33.404C154.225 33.036 153.953 32.756 153.609 32.564C153.273 32.364 152.901 32.264 152.493 32.264C152.085 32.264 151.713 32.36 151.377 32.552C151.041 32.744 150.773 33.024 150.573 33.392C150.373 33.76 150.273 34.192 150.273 34.688C150.273 35.192 150.373 35.632 150.573 36.008C150.773 36.376 151.041 36.66 151.377 36.86C151.713 37.052 152.085 37.148 152.493 37.148C152.901 37.148 153.273 37.052 153.609 36.86C153.953 36.66 154.225 36.376 154.425 36.008C154.625 35.632 154.725 35.196 154.725 34.7ZM160.878 31.304C161.678 31.304 162.326 31.548 162.822 32.036C163.318 32.516 163.566 33.212 163.566 34.124V38H162.486V34.28C162.486 33.624 162.322 33.124 161.994 32.78C161.666 32.428 161.218 32.252 160.65 32.252C160.074 32.252 159.614 32.432 159.27 32.792C158.934 33.152 158.766 33.676 158.766 34.364V38H157.674V31.424H158.766V32.36C158.982 32.024 159.274 31.764 159.642 31.58C160.018 31.396 160.43 31.304 160.878 31.304ZM166.682 32.324V36.2C166.682 36.52 166.75 36.748 166.886 36.884C167.022 37.012 167.258 37.076 167.594 37.076H168.398V38H167.414C166.806 38 166.35 37.86 166.046 37.58C165.742 37.3 165.59 36.84 165.59 36.2V32.324H164.738V31.424H165.59V29.768H166.682V31.424H168.398V32.324H166.682Z" fill="black" fill-opacity="0.6"/>
</svg>
