<svg width="11" height="15" viewBox="0 0 11 15" fill="none" xmlns="http://www.w3.org/2000/svg">
<path d="M0.6601 0.176516C0.517393 0.291916 0.4375 0.446831 0.4375 0.608145C0.4375 0.76946 0.517393 0.924375 0.6601 1.03977L8.63293 7.5L0.6601 13.9589C0.517393 14.0743 0.4375 14.2292 0.4375 14.3906C0.4375 14.5519 0.517393 14.7068 0.6601 14.8222C0.729465 14.8785 0.8124 14.9232 0.904008 14.9537C0.995617 14.9843 1.09404 15 1.19348 15C1.29291 15 1.39134 14.9843 1.48294 14.9537C1.57455 14.9232 1.65749 14.8785 1.72685 14.8222L10.2052 7.95101C10.3542 7.83035 10.4375 7.66851 10.4375 7.5C10.4375 7.33149 10.3542 7.16965 10.2052 7.04899L1.72685 0.177808C1.65749 0.121537 1.57455 0.0768117 1.48294 0.0462728C1.39134 0.0157338 1.29291 0 1.19348 0C1.09404 0 0.995617 0.0157338 0.904008 0.0462728C0.8124 0.0768117 0.729465 0.121537 0.6601 0.177808V0.176516Z" fill="white"/>
</svg>
