<svg width="288" height="580" viewBox="0 0 288 580" fill="none" xmlns="http://www.w3.org/2000/svg">
<g opacity="0.7">
<path opacity="0.7" d="M144 579.681C223.529 579.681 288 572.261 288 563.109C288 553.957 223.529 546.537 144 546.537C64.471 546.537 0 553.957 0 563.109C0 572.261 64.471 579.681 144 579.681Z" fill="#CB8461"/>
<path d="M203.459 494.117L207.33 518.538L226.685 516.794L224.749 491.5L203.459 494.117Z" fill="#FFB8B8"/>
<path d="M112.414 494.117L108.852 518.538L91.0459 516.794L92.8265 491.5L112.414 494.117Z" fill="#FFB8B8"/>
<path d="M85.4432 234.787C85.4432 234.787 68.2716 253.558 72.0875 283.056C75.9034 312.554 82.5813 379.594 82.5813 379.594L87.3512 498.479L117.879 496.691L122.649 395.684L137.912 314.341L178.934 409.092C178.934 409.092 198.967 497.585 199.921 497.585C200.875 497.585 228.541 494.904 228.541 494.904L215.185 390.321C215.185 390.321 194.197 238.362 181.795 235.681C169.394 232.999 85.4432 234.787 85.4432 234.787Z" fill="#2F2E41"/>
<path d="M228.194 513.979C228.194 513.979 211.334 503.546 204.778 515.718C198.222 527.891 203.841 536.586 203.841 536.586C203.841 536.586 209.461 540.064 206.651 543.541C203.841 547.019 202.905 569.626 227.257 566.148C251.609 562.67 239.433 539.194 239.433 539.194L228.194 513.979Z" fill="#1E302B"/>
<path d="M108.696 63.3105C108.696 63.3105 117.13 85.4101 110.57 97.7859C104.011 110.162 120.878 124.305 120.878 124.305C120.878 124.305 164.919 103.09 159.297 92.482C153.675 81.8742 144.304 67.7305 146.178 58.8906L108.696 63.3105Z" fill="#F49E9E"/>
<path d="M125.883 72.9354C142.558 72.9354 156.077 58.3047 156.077 40.2567C156.077 22.2088 142.558 7.57812 125.883 7.57812C109.208 7.57812 95.6895 22.2088 95.6895 40.2567C95.6895 58.3047 109.208 72.9354 125.883 72.9354Z" fill="#FFB8B8"/>
<path d="M104.414 97.5085C104.414 97.5085 135.072 121.097 157.936 87.6729L181.756 100.157L194.168 234.349C194.168 234.349 124.465 271.429 91.0459 239.646L95.8201 115.165L104.414 97.5085Z" fill="#D0CDE1"/>
<path d="M113.343 83.749L70.5994 109.812L85.4393 175.249L65.9619 276.941L97.4967 231.843C113.439 181.525 120.403 147.308 113.343 83.749Z" fill="#CB8461"/>
<path d="M151.697 76.335L162.081 82.8069L204.281 96.9756L197.717 206.783L215.535 277.626L190.214 290.023C190.214 290.023 185.526 256.373 156.454 239.548C127.382 222.722 145.064 81.3751 151.697 76.335Z" fill="#CB8461"/>
<path d="M80.8251 249.03L92.9026 256.931C92.9026 256.931 77.5735 272.293 74.7864 269.659C73.9798 268.928 73.3536 268.037 72.9522 267.051C72.5508 266.065 72.3841 265.007 72.4639 263.953L69.6768 257.809L80.8251 249.03Z" fill="#FFB8B8"/>
<path d="M161.729 248.157L157.564 254.261C157.564 254.261 145.313 259.534 148.14 263.049C150.967 266.565 174.526 274.474 179.237 266.565L183.949 258.655L161.729 248.157Z" fill="#FFB8B8"/>
<path d="M77.261 109.478L70.8204 110.366L60.2394 176.526C60.2394 176.526 56.099 188.515 60.6994 216.933C65.2999 245.351 69.8556 263.857 69.8556 263.857L90.1423 249.792L80.9414 226.702L92.9025 142.336L77.261 109.478Z" fill="#CB8461"/>
<path d="M189.361 94.6514L204.61 96.4232C204.61 96.4232 221.765 113.255 224.624 130.973C227.483 148.691 226.53 199.187 226.53 199.187L182.69 263.858L158.863 247.912L192.22 192.986L176.018 127.43L189.361 94.6514Z" fill="#CB8461"/>
<path d="M155.053 16.2852C150.424 8.97939 143.178 3.59579 134.71 1.17057L128.49 6.00643L130.908 0.365947C128.875 0.0644476 126.817 -0.0511586 124.761 0.0206424L119.165 7.01345L121.481 0.260171C116.625 0.846659 111.946 2.40465 107.741 4.83589C103.535 7.26713 99.8935 10.5189 97.0455 14.3861C89.9228 24.3674 88.7209 38.2482 95.7264 48.3075C97.6494 42.564 99.9835 37.1746 101.907 31.431C103.418 31.6312 104.95 31.6385 106.463 31.4526L108.803 26.1469L109.456 31.2282C116.708 30.6141 127.464 29.2661 134.339 28.0309L133.671 24.1328L137.671 27.3721C139.777 26.9008 141.027 26.4735 140.924 26.1469C146.037 34.1579 151.103 39.2747 156.216 47.2857C158.157 35.9859 161.584 26.5932 155.053 16.2852Z" fill="black"/>
<path d="M152.361 46.6799C153.387 46.6799 154.219 44.9226 154.219 42.755C154.219 40.5873 153.387 38.8301 152.361 38.8301C151.335 38.8301 150.503 40.5873 150.503 42.755C150.503 44.9226 151.335 46.6799 152.361 46.6799Z" fill="#FFB8B8"/>
<path d="M89.5355 513.979C89.5355 513.979 106.395 503.546 112.951 515.718C119.507 527.891 113.888 536.586 113.888 536.586C113.888 536.586 108.268 540.064 111.078 543.541C113.888 547.019 114.824 569.626 90.4721 566.148C66.1199 562.67 78.296 539.194 78.296 539.194L89.5355 513.979Z" fill="#1C1C1C"/>
</g>
</svg>
