<svg width="24" height="23" viewBox="0 0 24 23" fill="none" xmlns="http://www.w3.org/2000/svg">
<path d="M12.1969 0.711366C12.0582 0.594641 11.8875 0.53125 11.7117 0.53125C11.5359 0.53125 11.3652 0.594641 11.2266 0.711366L0 10.1656L0.971094 11.492L2.34375 10.336V20.7808C2.34458 21.2281 2.50946 21.6568 2.80231 21.9731C3.09515 22.2893 3.4921 22.4674 3.90625 22.4683H19.5312C19.9454 22.4674 20.3423 22.2893 20.6352 21.9731C20.928 21.6568 21.0929 21.2281 21.0938 20.7808V10.3436L22.4664 11.4996L23.4375 10.1732L12.1969 0.711366ZM13.2812 20.7808H10.1562V14.0308H13.2812V20.7808ZM14.8438 20.7808V14.0308C14.8433 13.5834 14.6786 13.1544 14.3856 12.8381C14.0927 12.5217 13.6955 12.3437 13.2812 12.3433H10.1562C9.74198 12.3437 9.34479 12.5217 9.05185 12.8381C8.75892 13.1544 8.59416 13.5834 8.59375 14.0308V20.7808H3.90625V9.02062L11.7188 2.4478L19.5312 9.02905V20.7808H14.8438Z" fill="white"/>
</svg>
