<svg width="20" height="18" viewBox="0 0 20 18" fill="none" xmlns="http://www.w3.org/2000/svg">
<path fill-rule="evenodd" clip-rule="evenodd" d="M16.6045 7.28488C17.1916 7.28489 17.7649 7.46125 18.2485 7.79062C18.7321 8.12 19.1033 8.58686 19.3128 9.12943C19.5223 9.672 19.5603 10.2647 19.4218 10.8291C19.2834 11.3935 18.9749 11.9031 18.5373 12.2903V17.0271C18.5373 17.1086 18.5162 17.1888 18.4761 17.2599C18.4359 17.3311 18.378 17.391 18.3079 17.4338C18.2378 17.4766 18.1578 17.501 18.0755 17.5046C17.9932 17.5082 17.9113 17.4909 17.8376 17.4544L16.6045 16.8445L15.3714 17.4544C15.2977 17.4909 15.2158 17.5082 15.1335 17.5046C15.0512 17.501 14.9712 17.4766 14.9011 17.4338C14.8309 17.391 14.7731 17.3311 14.7329 17.2599C14.6928 17.1888 14.6717 17.1086 14.6717 17.0271V12.2903C14.2341 11.9031 13.9256 11.3935 13.7872 10.8291C13.6487 10.2647 13.6867 9.672 13.8962 9.12943C14.1057 8.58686 14.4769 8.12 14.9605 7.79062C15.4441 7.46125 16.0174 7.28489 16.6045 7.28488ZM17.5709 0.59314C18.0835 0.59314 18.5751 0.794574 18.9376 1.15313C19.3001 1.51168 19.5037 1.99799 19.5037 2.50506V6.32891C18.5732 5.63857 17.4222 5.30341 16.262 5.38498C15.1018 5.46654 14.0102 5.95935 13.1878 6.77293C12.3653 7.5865 11.8671 8.66625 11.7847 9.81393C11.7022 10.9616 12.041 12.1002 12.7389 13.0207V15.8885H2.10857C1.59596 15.8885 1.10435 15.6871 0.741882 15.3285C0.379414 14.97 0.175781 14.4837 0.175781 13.9766V2.50506C0.175781 1.99799 0.379414 1.51168 0.741882 1.15313C1.10435 0.794574 1.59596 0.59314 2.10857 0.59314H17.5709ZM5.97415 9.1968H4.04136C3.78506 9.1968 3.53925 9.29752 3.35802 9.4768C3.17678 9.65607 3.07497 9.89923 3.07497 10.1528C3.07497 10.4063 3.17678 10.6495 3.35802 10.8287C3.53925 11.008 3.78506 11.1087 4.04136 11.1087H5.97415C6.23046 11.1087 6.47626 11.008 6.6575 10.8287C6.83873 10.6495 6.94055 10.4063 6.94055 10.1528C6.94055 9.89923 6.83873 9.65607 6.6575 9.4768C6.47626 9.29752 6.23046 9.1968 5.97415 9.1968ZM9.83973 5.37295H4.04136C3.79505 5.37322 3.55813 5.46652 3.37902 5.63378C3.19992 5.80105 3.09213 6.02965 3.0777 6.27289C3.06326 6.51613 3.14327 6.75564 3.30136 6.94248C3.45945 7.12933 3.6837 7.24941 3.92829 7.27818L4.04136 7.28488H9.83973C10.086 7.28461 10.323 7.19131 10.5021 7.02404C10.6812 6.85678 10.789 6.62818 10.8034 6.38494C10.8178 6.1417 10.7378 5.90219 10.5797 5.71535C10.4216 5.5285 10.1974 5.40842 9.9528 5.37964L9.83973 5.37295Z" fill="white"/>
</svg>
