<svg width="16" height="20" viewBox="0 0 16 20" fill="none" xmlns="http://www.w3.org/2000/svg">
<path d="M13.3882 0H7.72574V6.76477L5.36638 5.31517L3.00702 6.76477V0H2.06327C1.56268 0 1.08259 0.203633 0.728614 0.566101C0.374641 0.928569 0.175781 1.42018 0.175781 1.93279V17.3951C0.175781 17.9077 0.374641 18.3993 0.728614 18.7618C1.08259 19.1243 1.56268 19.3279 2.06327 19.3279H13.3882C13.8888 19.3279 14.3689 19.1243 14.7229 18.7618C15.0768 18.3993 15.2757 17.9077 15.2757 17.3951V1.93279C15.2757 1.42018 15.0768 0.928569 14.7229 0.566101C14.3689 0.203633 13.8888 0 13.3882 0ZM9.61323 9.66395C9.98654 9.66395 10.3515 9.77731 10.6619 9.98969C10.9723 10.2021 11.2142 10.5039 11.357 10.8571C11.4999 11.2103 11.5373 11.5989 11.4645 11.9738C11.3916 12.3487 11.2119 12.6931 10.9479 12.9634C10.6839 13.2337 10.3476 13.4178 9.98147 13.4924C9.61533 13.567 9.23582 13.5287 8.89092 13.3824C8.54603 13.2361 8.25124 12.9884 8.04384 12.6705C7.83644 12.3527 7.72574 11.979 7.72574 11.5967C7.72574 11.0841 7.9246 10.5925 8.27858 10.2301C8.63255 9.86758 9.11264 9.66395 9.61323 9.66395ZM13.3882 17.3951H5.83825V16.4287C5.83825 15.1434 8.35805 14.4959 9.61323 14.4959C10.8684 14.4959 13.3882 15.1434 13.3882 16.4287V17.3951Z" fill="white"/>
</svg>
