<svg width="20" height="20" viewBox="0 0 20 20" fill="none" xmlns="http://www.w3.org/2000/svg">
<path d="M9.83973 0.706787C4.58031 0.706787 0.175781 4.48316 0.175781 9.25567C0.175781 11.5081 1.18604 13.5286 2.77761 15.0399C2.5837 15.5455 2.30905 16.0162 1.96436 16.4338C1.50708 16.9885 1.00186 17.5019 0.454549 17.9681C0.334505 18.0644 0.247312 18.1956 0.205003 18.3436C0.162694 18.4915 0.167354 18.649 0.218341 18.7942C0.269328 18.9394 0.364128 19.0652 0.489658 19.1543C0.615188 19.2433 0.76526 19.2912 0.919162 19.2913C2.56575 19.2913 3.74996 19.2727 4.82191 18.9895C5.78087 18.7353 6.60528 18.203 7.44679 17.4559C8.21247 17.6395 9.00269 17.8045 9.83973 17.8045C15.0992 17.8045 19.5037 14.0282 19.5037 9.25567C19.5037 4.48316 15.0992 0.706787 9.83973 0.706787ZM9.83973 2.19355C14.3929 2.19355 18.0169 5.40495 18.0169 9.25567C18.0169 13.1064 14.3929 16.3178 9.83973 16.3178C9.03019 16.3178 8.18943 16.178 7.42374 15.9691C7.3013 15.9384 7.17303 15.9393 7.05104 15.9718C6.92904 16.0043 6.81733 16.0673 6.72645 16.155C5.89015 16.9571 5.27389 17.331 4.45022 17.5488C4.0711 17.6492 3.33961 17.6254 2.8237 17.6655C2.92778 17.5481 3.02516 17.4856 3.12626 17.363C3.71056 16.6493 4.24356 15.8948 4.40413 15.0399C4.42625 14.9116 4.41427 14.7797 4.36939 14.6575C4.32451 14.5352 4.24831 14.4269 4.14841 14.3434C2.59103 13.0573 1.66254 11.2546 1.66254 9.25567C1.66254 5.40495 5.28652 2.19355 9.83973 2.19355ZM8.42285 5.09719C8.292 5.12656 8.17153 5.19078 8.0742 5.28304L6.95913 6.32898L7.95824 7.42026L8.84063 6.58396H10.6292L11.3265 7.37491V8.46694L9.42121 9.74407C9.31937 9.81342 9.23636 9.907 9.17966 10.0164C9.12295 10.1258 9.09432 10.2475 9.09635 10.3707V11.8575H10.5831V10.7885L12.4884 9.51139C12.5903 9.44197 12.6734 9.34827 12.7301 9.23874C12.7868 9.12922 12.8154 9.0073 12.8133 8.88398V7.0954C12.8123 6.91573 12.7463 6.7425 12.6274 6.60774L11.5123 5.35292C11.443 5.27308 11.3573 5.20897 11.2612 5.16487C11.165 5.12077 11.0606 5.0977 10.9548 5.09719H8.58491C8.53105 5.09129 8.47671 5.09129 8.42285 5.09719ZM9.09635 12.6009V14.0876H10.5831V12.6009H9.09635Z" fill="white"/>
</svg>
