<svg width="21" height="22" viewBox="0 0 21 22" fill="none" xmlns="http://www.w3.org/2000/svg">
<path d="M18.8448 15.7539V7.35287H5.77648V15.7539H18.8448ZM18.8448 2.68563C19.3399 2.68563 19.8148 2.88232 20.1649 3.23243C20.515 3.58254 20.7117 4.05739 20.7117 4.55252V15.7539C20.7117 16.2491 20.515 16.7239 20.1649 17.074C19.8148 17.4241 19.3399 17.6208 18.8448 17.6208H5.77648C5.28135 17.6208 4.80649 17.4241 4.45638 17.074C4.10627 16.7239 3.90958 16.2491 3.90958 15.7539V4.55252C3.90958 4.05739 4.10627 3.58254 4.45638 3.23243C4.80649 2.88232 5.28135 2.68563 5.77648 2.68563H6.70993V0.818726H8.57683V2.68563H16.0444V0.818726H17.9113V2.68563H18.8448ZM15.6057 10.2092L11.4612 14.3537L8.95954 11.8521L9.949 10.8626L11.4612 12.3748L14.6162 9.21977L15.6057 10.2092ZM2.04268 19.4877H15.111V21.3546H2.04268C1.54755 21.3546 1.0727 21.1579 0.722584 20.8078C0.372472 20.4577 0.175781 19.9829 0.175781 19.4877V8.28632H2.04268V19.4877Z" fill="white"/>
</svg>
