<svg width="18" height="19" viewBox="0 0 18 19" fill="none" xmlns="http://www.w3.org/2000/svg">
<path d="M10.0142 8.70054C10.2476 8.79129 10.4748 8.89111 10.6959 9C10.917 9.10889 11.132 9.23291 11.3408 9.37205C11.2057 9.51724 11.0828 9.66849 10.9723 9.82578C10.8618 9.98307 10.7604 10.1525 10.6683 10.3339C10.1954 10.0315 9.69181 9.80158 9.15751 9.64429C8.6232 9.487 8.07354 9.40835 7.50853 9.40835C6.96808 9.40835 6.44606 9.47792 5.94246 9.61706C5.43886 9.75621 4.96904 9.94979 4.533 10.1978C4.09696 10.4459 3.70084 10.7483 3.34463 11.1053C2.98843 11.4622 2.68136 11.8554 2.42342 12.285C2.16548 12.7145 1.96588 13.1773 1.82463 13.6734C1.68338 14.1694 1.61275 14.6836 1.61275 15.216H0.433594C0.433594 14.4901 0.541069 13.7913 0.756019 13.1198C0.970969 12.4483 1.28111 11.8282 1.68645 11.2595C2.09178 10.6909 2.57081 10.1857 3.12354 9.74411C3.67627 9.30248 4.3027 8.95463 5.00282 8.70054C4.30884 8.25287 3.76839 7.69025 3.38148 7.01269C2.99457 6.33513 2.79805 5.58497 2.79191 4.76222C2.79191 4.12096 2.91473 3.51902 3.16039 2.9564C3.40605 2.39378 3.74076 1.90074 4.16452 1.47726C4.58828 1.05378 5.0888 0.721054 5.6661 0.479068C6.24339 0.237082 6.85754 0.116089 7.50853 0.116089C8.15952 0.116089 8.77059 0.237082 9.34175 0.479068C9.9129 0.721054 10.4134 1.05076 10.8433 1.46819C11.2732 1.88561 11.611 2.37866 11.8567 2.94732C12.1023 3.51599 12.2252 4.12096 12.2252 4.76222C12.2252 5.1615 12.176 5.5517 12.0778 5.93283C11.9795 6.31396 11.8321 6.67391 11.6356 7.01269C11.439 7.35147 11.2087 7.66303 10.9447 7.94736C10.6806 8.23169 10.3704 8.48275 10.0142 8.70054ZM3.97106 4.76222C3.97106 5.24619 4.06318 5.69689 4.24743 6.11432C4.43167 6.53174 4.68347 6.90077 5.00282 7.2214C5.32218 7.54203 5.69681 7.79309 6.12671 7.97458C6.55661 8.15607 7.01721 8.24682 7.50853 8.24682C7.9937 8.24682 8.45124 8.15607 8.88114 7.97458C9.31104 7.79309 9.68567 7.54506 10.005 7.23048C10.3244 6.9159 10.5792 6.54687 10.7696 6.12339C10.96 5.69992 11.0521 5.24619 11.046 4.76222C11.046 4.2843 10.9539 3.8336 10.7696 3.41012C10.5854 2.98665 10.3336 2.61762 10.0142 2.30304C9.69488 1.98846 9.31718 1.7374 8.88114 1.54986C8.4451 1.36232 7.98756 1.27157 7.50853 1.27762C7.01721 1.27762 6.55968 1.36837 6.13592 1.54986C5.71216 1.73135 5.33753 1.97938 5.01203 2.29396C4.68654 2.60854 4.43167 2.9806 4.24743 3.41012C4.06318 3.83965 3.97106 4.29035 3.97106 4.76222ZM17.5314 12.3122C17.5314 12.6268 17.4822 12.9323 17.384 13.2287C17.2857 13.5251 17.1383 13.8004 16.9418 14.0545V18.7006L14.5835 17.5391L12.2252 18.7006V14.0545C12.0348 13.8004 11.8904 13.5251 11.7922 13.2287C11.6939 12.9323 11.6417 12.6268 11.6356 12.3122C11.6356 11.9129 11.7123 11.5378 11.8659 11.1869C12.0194 10.8361 12.2282 10.5306 12.4923 10.2704C12.7564 10.0103 13.0696 9.80158 13.4319 9.64429C13.7943 9.487 14.1781 9.40835 14.5835 9.40835C14.9888 9.40835 15.3696 9.48397 15.7258 9.63521C16.082 9.78645 16.3921 9.99517 16.6562 10.2614C16.9203 10.5275 17.1322 10.8361 17.2918 11.1869C17.4515 11.5378 17.5314 11.9129 17.5314 12.3122ZM14.5835 10.5699C14.3378 10.5699 14.1075 10.6153 13.8926 10.706C13.6776 10.7967 13.4903 10.9208 13.3306 11.0781C13.1709 11.2353 13.045 11.4199 12.9529 11.6316C12.8608 11.8433 12.8147 12.0702 12.8147 12.3122C12.8147 12.5542 12.8608 12.781 12.9529 12.9928C13.045 13.2045 13.1709 13.389 13.3306 13.5463C13.4903 13.7036 13.6776 13.8276 13.8926 13.9184C14.1075 14.0091 14.3378 14.0545 14.5835 14.0545C14.8291 14.0545 15.0594 14.0091 15.2744 13.9184C15.4893 13.8276 15.6766 13.7036 15.8363 13.5463C15.996 13.389 16.1219 13.2045 16.214 12.9928C16.3061 12.781 16.3522 12.5542 16.3522 12.3122C16.3522 12.0702 16.3061 11.8433 16.214 11.6316C16.1219 11.4199 15.996 11.2353 15.8363 11.0781C15.6766 10.9208 15.4893 10.7967 15.2744 10.706C15.0594 10.6153 14.8291 10.5699 14.5835 10.5699ZM15.7626 16.8222V14.971C15.3941 15.1343 15.0011 15.216 14.5835 15.216C14.1658 15.216 13.7728 15.1343 13.4043 14.971V16.8222C13.6008 16.7254 13.7974 16.6316 13.9939 16.5409C14.1904 16.4501 14.3869 16.3503 14.5835 16.2414C14.78 16.3443 14.9765 16.4411 15.173 16.5318C15.3696 16.6226 15.5661 16.7194 15.7626 16.8222Z" fill="white"/>
</svg>
