<svg width="19" height="19" viewBox="0 0 19 19" fill="none" xmlns="http://www.w3.org/2000/svg">
<path d="M13.7506 14.6009V16.4733C13.7506 16.5981 13.7974 16.7073 13.891 16.8009C13.9847 16.8945 14.0939 16.9414 14.2187 16.9414C14.3435 16.9414 14.4528 16.8945 14.5464 16.8009C14.64 16.7073 14.6868 16.5981 14.6868 16.4733V14.6009H16.5592C16.684 14.6009 16.7932 14.5541 16.8869 14.4604C16.9805 14.3668 17.0273 14.2576 17.0273 14.1328C17.0273 14.0079 16.9805 13.8987 16.8869 13.8051C16.7932 13.7115 16.684 13.6647 16.5592 13.6647H14.6868V11.7923C14.6868 11.6675 14.64 11.5582 14.5464 11.4646C14.4528 11.371 14.3435 11.3242 14.2187 11.3242C14.0939 11.3242 13.9847 11.371 13.891 11.4646C13.7974 11.5582 13.7506 11.6675 13.7506 11.7923V13.6647H11.8782C11.7534 13.6647 11.6442 13.7115 11.5506 13.8051C11.4569 13.8987 11.4101 14.0079 11.4101 14.1328C11.4101 14.2576 11.4569 14.3668 11.5506 14.4604C11.6442 14.5541 11.7534 14.6009 11.8782 14.6009H13.7506ZM14.2187 18.8137C12.9236 18.8137 11.8196 18.3572 10.9065 17.4441C9.99335 16.531 9.53711 15.4272 9.53773 14.1328C9.53773 12.8377 9.99429 11.7336 10.9074 10.8205C11.8205 9.90741 12.9243 9.45117 14.2187 9.4518C15.5138 9.4518 16.6179 9.90835 17.531 10.8215C18.4441 11.7346 18.9003 12.8383 18.8997 14.1328C18.8997 15.4278 18.4431 16.5319 17.53 17.445C16.6169 18.3581 15.5132 18.8144 14.2187 18.8137ZM4.85676 5.70702H12.3463C12.6116 5.70702 12.8341 5.61714 13.0138 5.43739C13.1936 5.25764 13.2831 5.03545 13.2825 4.77082C13.2825 4.50557 13.1926 4.28306 13.0129 4.10331C12.8331 3.92356 12.611 3.834 12.3463 3.83463H4.85676C4.5915 3.83463 4.369 3.9245 4.18925 4.10425C4.0095 4.284 3.91994 4.50619 3.92056 4.77082C3.92056 5.03608 4.01044 5.25858 4.19019 5.43833C4.36994 5.61808 4.59213 5.70764 4.85676 5.70702ZM8.29728 16.9414H2.04817C1.53327 16.9414 1.09232 16.7579 0.725329 16.3909C0.358341 16.0239 0.175159 15.5833 0.175783 15.069V1.96224C0.175783 1.44733 0.359277 1.00638 0.726266 0.639392C1.09325 0.272403 1.53389 0.0892212 2.04817 0.0898453H15.1549C15.6698 0.0898453 16.1108 0.27334 16.4777 0.640328C16.8447 1.00732 17.0279 1.44795 17.0273 1.96224V8.23474C16.5748 8.0163 16.1183 7.85246 15.6576 7.74324C15.197 7.63402 14.7174 7.57941 14.2187 7.57941C14.0471 7.57941 13.887 7.58315 13.7384 7.59064C13.5899 7.59813 13.4379 7.61779 13.2825 7.64962C13.1421 7.61841 12.9861 7.59907 12.8144 7.59158C12.6428 7.58409 12.4867 7.58003 12.3463 7.57941H4.85676C4.5915 7.57941 4.369 7.66928 4.18925 7.84903C4.0095 8.02878 3.91994 8.25097 3.92056 8.5156C3.92056 8.78086 4.01044 9.00336 4.19019 9.18311C4.36994 9.36286 4.59213 9.45242 4.85676 9.4518H9.65476C9.3739 9.71705 9.12019 10.0057 8.89363 10.3178C8.66707 10.6298 8.46829 10.9653 8.29728 11.3242H4.85676C4.5915 11.3242 4.369 11.4141 4.18925 11.5938C4.0095 11.7736 3.91994 11.9958 3.92056 12.2604C3.92056 12.5256 4.01044 12.7481 4.19019 12.9279C4.36994 13.1076 4.59213 13.1972 4.85676 13.1966H7.73556C7.70435 13.3526 7.68469 13.5049 7.67658 13.6534C7.66847 13.802 7.66472 13.9618 7.66534 14.1328C7.66534 14.6477 7.71215 15.1276 7.80577 15.5726C7.89939 16.0176 8.06323 16.4739 8.29728 16.9414Z" fill="white"/>
</svg>
