<svg width="18" height="17" viewBox="0 0 18 17" fill="none" xmlns="http://www.w3.org/2000/svg">
<path d="M16.1888 3.93323H12.9008C12.9008 2.89224 12.4851 1.89389 11.7451 1.1578C11.0052 0.42171 10.0016 0.00817871 8.95513 0.00817871C7.90868 0.00817871 6.90509 0.42171 6.16514 1.1578C5.42519 1.89389 5.00949 2.89224 5.00949 3.93323H1.72146C1.37265 3.93323 1.03812 4.07107 0.791467 4.31644C0.544817 4.5618 0.40625 4.89458 0.40625 5.24158V15.0542C0.40625 15.4012 0.544817 15.734 0.791467 15.9794C1.03812 16.2247 1.37265 16.3626 1.72146 16.3626H16.1888C16.5376 16.3626 16.8721 16.2247 17.1188 15.9794C17.3654 15.734 17.504 15.4012 17.504 15.0542V5.24158C17.504 4.89458 17.3654 4.5618 17.1188 4.31644C16.8721 4.07107 16.5376 3.93323 16.1888 3.93323ZM8.95513 1.31653C9.65276 1.31653 10.3218 1.59222 10.8151 2.08294C11.3084 2.57367 11.5856 3.23924 11.5856 3.93323H6.32471C6.32471 3.23924 6.60184 2.57367 7.09514 2.08294C7.58844 1.59222 8.2575 1.31653 8.95513 1.31653Z" fill="white"/>
</svg>
